<svg width="62" height="67" viewBox="0 0 62 67" fill="none" xmlns="http://www.w3.org/2000/svg">
<path d="M60.4808 13.0327L48.7183 1.35018C48.3702 1.00444 47.9526 0.797102 47.4657 0.797102L23.5929 0.728149C22.4792 0.728149 21.4354 1.14283 20.6004 1.97218C19.8347 2.7326 19.3478 3.83872 19.3478 4.94438V10.3363H13.919C12.8053 10.3363 11.6916 10.7509 10.9265 11.5803C10.1608 12.3407 9.6739 13.4468 9.6739 14.5525V19.9444H4.2451C3.13139 19.9444 2.08763 20.359 1.25255 21.1884C0.486927 21.9488 0 23.0549 0 24.1606V62.3185C0 64.5997 1.87932 66.5352 4.2456 66.5352L37.5131 66.5366C39.81 66.5366 41.7588 64.6701 41.7588 62.3199V56.928H47.1875C49.4843 56.928 51.4331 55.0615 51.4331 52.7113V47.3194H56.8619C59.1587 47.3194 61.1076 45.4529 61.1076 43.1027V14.2769C61.0381 13.7928 60.8294 13.3781 60.4813 13.0324L60.4808 13.0327ZM38.1392 62.1817C38.1392 62.5274 37.861 62.8037 37.5129 62.8037H4.3137C3.9656 62.8037 3.68741 62.5274 3.68741 62.1817V24.093C3.68741 23.8856 3.82674 23.7472 3.89617 23.6783C3.9656 23.6093 4.10493 23.5399 4.3137 23.5399H9.74249V52.7113C9.74249 54.9925 11.6218 56.928 13.9881 56.928H38.2089L38.2094 62.1815L38.1392 62.1817ZM47.8136 52.6421C47.8136 52.9878 47.5354 53.2641 47.1873 53.2641L13.9185 53.2646C13.5704 53.2646 13.2922 52.9883 13.2922 52.6426V14.4847C13.2922 14.2774 13.4315 14.139 13.501 14.07C13.5704 14.0011 13.7097 13.9316 13.9185 13.9316H19.3473V43.1031C19.3473 45.3842 21.2266 47.3198 23.5929 47.3198H47.8137L47.8136 52.6421ZM57.4185 43.0335C57.4185 43.3792 57.1403 43.6555 56.7922 43.6555L23.593 43.656C23.2449 43.656 22.9667 43.3797 22.9667 43.034V4.94524C22.9667 4.7379 23.1061 4.59951 23.1755 4.53056C23.2449 4.4616 23.3843 4.32321 23.593 4.32321L45.6562 4.39217V14.277C45.6562 15.2448 46.4913 16.0742 47.4657 16.0742H57.4182L57.4185 43.0335Z" fill="#7FDB99"/>
</svg>
