<svg width="26" height="19" viewBox="0 0 26 19" fill="none" xmlns="http://www.w3.org/2000/svg">
<path d="M9.93414 5.85881H10.6492C11.0443 5.85881 11.3642 5.53891 11.3642 5.14376V3.71365C11.3642 3.319 11.0443 2.9986 10.6492 2.9986H9.21908C8.82394 2.9986 8.50403 3.319 8.50403 3.71365V5.14376C8.50403 6.10845 9.72487 5.812 9.93414 5.85881Z" fill="#646371"/>
<path d="M14.9391 5.85881H16.3692C16.7643 5.85881 17.0842 5.53891 17.0842 5.14376V3.71365C17.0842 3.319 16.7643 2.9986 16.3692 2.9986H14.9391C14.5439 2.9986 14.224 3.319 14.224 3.71365V5.14376C14.224 5.53891 14.5439 5.85881 14.9391 5.85881Z" fill="#646371"/>
<path d="M20.6596 5.85881H22.0897C22.4849 5.85881 22.8048 5.53891 22.8048 5.14376V3.71365C22.8048 3.319 22.4849 2.9986 22.0897 2.9986H20.6596C20.2645 2.9986 19.9446 3.319 19.9446 3.71365V5.14376C19.9446 5.53891 20.2645 5.85881 20.6596 5.85881Z" fill="#646371"/>
<path d="M20.6596 11.5794H22.0897C22.4849 11.5794 22.8048 11.2595 22.8048 10.8643V9.43423C22.8048 9.03958 22.4849 8.71918 22.0897 8.71918H20.6596C20.2645 8.71918 19.9446 9.03958 19.9446 9.43423V10.8643C19.9446 11.2595 20.2645 11.5794 20.6596 11.5794Z" fill="#646371"/>
<path d="M14.9391 11.5794H16.3692C16.7643 11.5794 17.0842 11.2595 17.0842 10.8643V9.43423C17.0842 9.03958 16.7643 8.71918 16.3692 8.71918H14.9391C14.5439 8.71918 14.224 9.03958 14.224 9.43423V10.8643C14.224 11.2595 14.5439 11.5794 14.9391 11.5794Z" fill="#646371"/>
<path d="M10.6491 11.5794C11.0443 11.5794 11.3642 11.2595 11.3642 10.8643V9.43423C11.3642 9.03958 11.0443 8.71918 10.6491 8.71918H9.21904C8.82389 8.71918 8.50398 9.03958 8.50398 9.43423V10.8643C8.50398 11.6551 9.41587 11.7234 10.6491 11.5794Z" fill="#646371"/>
<path d="M3.49855 11.5794H4.92866C5.32381 11.5794 5.64372 11.2595 5.64372 10.8643V9.43423C5.64372 9.03958 5.32381 8.71918 4.92866 8.71918H3.49855C3.1034 8.71918 2.78349 9.03958 2.78349 9.43423V10.8643C2.78349 11.2595 3.1034 11.5794 3.49855 11.5794Z" fill="#646371"/>
<path d="M3.49855 17.2999H4.92866C5.32381 17.2999 5.64372 16.98 5.64372 16.5849V15.1548C5.64372 14.7601 5.32381 14.4397 4.92866 14.4397H3.49855C3.1034 14.4397 2.78349 14.7601 2.78349 15.1548V16.5849C2.78349 16.98 3.1034 17.2999 3.49855 17.2999Z" fill="#646371"/>
<path d="M9.2192 17.2999H10.6493C11.0445 17.2999 11.3644 16.98 11.3644 16.5849V15.1548C11.3644 14.7601 11.0445 14.4397 10.6493 14.4397H9.2192C8.82406 14.4397 8.50415 14.7601 8.50415 15.1548V16.5849C8.50415 16.98 8.82405 17.2999 9.2192 17.2999Z" fill="#646371"/>
<path d="M14.9391 17.2999H16.3692C16.7643 17.2999 17.0842 16.98 17.0842 16.5849V15.1548C17.0842 14.7601 16.7643 14.4397 16.3692 14.4397H14.9391C14.5439 14.4397 14.224 14.7601 14.224 15.1548V16.5849C14.224 16.98 14.5439 17.2999 14.9391 17.2999Z" fill="#646371"/>
</svg>
