<svg width="31" height="23" viewBox="0 0 31 23" fill="none" xmlns="http://www.w3.org/2000/svg">
<path d="M11.08 4.60002H12.1851C12.7958 4.60002 13.2902 4.10563 13.2902 3.49494V1.28477C13.2902 0.674861 12.7958 0.179688 12.1851 0.179688H9.97496C9.36428 0.179688 8.86987 0.674851 8.86987 1.28477V3.49494C8.86987 4.98583 10.7566 4.52767 11.08 4.60002Z" fill="#665194"/>
<path d="M18.815 4.60003H21.0252C21.6359 4.60003 22.1303 4.10563 22.1303 3.49494V1.28477C22.1303 0.674861 21.6359 0.179688 21.0252 0.179688H18.815C18.2044 0.179688 17.71 0.674851 17.71 1.28477V3.49494C17.71 4.10562 18.2044 4.60003 18.815 4.60003Z" fill="#665194"/>
<path d="M27.6559 4.60003H29.866C30.4767 4.60003 30.9711 4.10563 30.9711 3.49494V1.28477C30.9711 0.674861 30.4767 0.179688 29.866 0.179688H27.6559C27.0452 0.179688 26.5508 0.674851 26.5508 1.28477V3.49494C26.5508 4.10562 27.0452 4.60003 27.6559 4.60003Z" fill="#665194"/>
<path d="M27.6559 13.4409H29.866C30.4767 13.4409 30.9711 12.9465 30.9711 12.3358V10.1257C30.9711 9.51574 30.4767 9.02057 29.866 9.02057H27.6559C27.0452 9.02057 26.5508 9.51573 26.5508 10.1257V12.3358C26.5508 12.9465 27.0452 13.4409 27.6559 13.4409Z" fill="#665194"/>
<path d="M18.815 13.4409H21.0252C21.6359 13.4409 22.1303 12.9465 22.1303 12.3358V10.1257C22.1303 9.51574 21.6359 9.02057 21.0252 9.02057H18.815C18.2044 9.02057 17.71 9.51573 17.71 10.1257V12.3358C17.71 12.9465 18.2044 13.4409 18.815 13.4409Z" fill="#665194"/>
<path d="M12.185 13.4409C12.7957 13.4409 13.2901 12.9465 13.2901 12.3358V10.1257C13.2901 9.51574 12.7957 9.02057 12.185 9.02057H9.97483C9.36416 9.02057 8.86975 9.51573 8.86975 10.1257V12.3358C8.86975 13.5579 10.279 13.6635 12.185 13.4409Z" fill="#665194"/>
<path d="M1.13414 13.4409H3.34431C3.95499 13.4409 4.4494 12.9465 4.4494 12.3358V10.1257C4.4494 9.51574 3.955 9.02057 3.34431 9.02057H1.13414C0.523458 9.02057 0.0290527 9.51573 0.0290527 10.1257V12.3358C0.0290527 12.9465 0.523448 13.4409 1.13414 13.4409Z" fill="#665194"/>
<path d="M1.13414 22.2817H3.34431C3.95499 22.2817 4.4494 21.7873 4.4494 21.1766V18.9665C4.4494 18.3566 3.955 17.8614 3.34431 17.8614H1.13414C0.523458 17.8614 0.0290527 18.3566 0.0290527 18.9665V21.1766C0.0290527 21.7873 0.523448 22.2817 1.13414 22.2817Z" fill="#665194"/>
<path d="M9.9752 22.2817H12.1854C12.796 22.2817 13.2905 21.7873 13.2905 21.1766V18.9665C13.2905 18.3566 12.7961 17.8614 12.1854 17.8614H9.9752C9.36452 17.8614 8.87012 18.3566 8.87012 18.9665V21.1766C8.87012 21.7873 9.36451 22.2817 9.9752 22.2817Z" fill="#665194"/>
<path d="M18.815 22.2817H21.0252C21.6359 22.2817 22.1303 21.7873 22.1303 21.1766V18.9665C22.1303 18.3566 21.6359 17.8614 21.0252 17.8614H18.815C18.2044 17.8614 17.71 18.3566 17.71 18.9665V21.1766C17.71 21.7873 18.2044 22.2817 18.815 22.2817Z" fill="#665194"/>
</svg>
