<svg width="15" height="15" viewBox="0 0 15 15" fill="none" xmlns="http://www.w3.org/2000/svg">
<path d="M12.7642 4.51739L13.4802 3.79935V3.79949C13.9124 3.39127 14.161 2.8257 14.1695 2.23141C14.1779 1.63709 13.9456 1.06469 13.5252 0.644334C13.105 0.223976 12.5325 -0.00827466 11.9382 0.000225369C11.3438 0.0087354 10.7783 0.25734 10.3702 0.689406L9.65219 1.40537L12.7642 4.51739Z" fill="#646371"/>
<path d="M8.80423 2.25342L1.00422 10.0534H1.00408C0.924979 10.1298 0.868893 10.2268 0.842107 10.3334L0.020106 13.4154C-0.0277441 13.5955 0.0108986 13.7876 0.12446 13.9352C0.238021 14.083 0.413803 14.1695 0.600032 14.1695C0.652068 14.1698 0.703968 14.1631 0.75405 14.1494L3.84013 13.3334C3.94155 13.3058 4.0339 13.2521 4.10812 13.1774L11.9081 5.37743L8.80423 2.25342Z" fill="#646371"/>
</svg>
