<svg width="20" height="18" viewBox="0 0 20 18" fill="none" xmlns="http://www.w3.org/2000/svg">
<path fill-rule="evenodd" clip-rule="evenodd" d="M11.2194 1.0135C12.1475 0.391461 13.3899 -0.091944 14.855 0.155047C18.6587 0.796278 19.8481 4.17097 19.7038 6.31238C19.5808 8.92179 17.8767 11.3708 15.9538 13.3363C14.0063 15.3271 11.7153 16.9418 10.1971 17.879L9.85651 18.0892L9.51735 17.8767C6.86406 16.2138 4.94318 14.5445 3.58355 13.1505C0.751606 10.247 0.0545371 7.7741 0.00321919 6.29664C-0.0775017 3.97268 1.24287 0.581065 5.00941 0.130771C7.34212 -0.148105 8.98459 1.25905 9.85137 2.20628C10.1959 1.82732 10.6563 1.39096 11.2194 1.0135ZM11.9366 2.14716C11.1874 2.64924 10.6465 3.29442 10.3816 3.65178L9.88274 4.32472L9.35513 3.67541C8.73208 2.90863 7.31548 1.21698 5.16104 1.47455C2.31666 1.8146 1.25065 4.34773 1.31666 6.2483C1.35418 7.32817 1.87451 9.48887 4.51106 12.192C5.74453 13.4566 7.47839 14.9747 9.86104 16.5056C11.3108 15.5818 13.3183 14.1237 15.0277 12.3765C16.8978 10.4648 18.2958 8.32388 18.3914 6.24055L18.3917 6.23251L18.3922 6.22449C18.5078 4.55316 17.582 1.9856 14.6426 1.49007C13.5931 1.31315 12.68 1.64892 11.9366 2.14716Z" fill="#373641"/>
</svg>
