<svg width="18" height="18" viewBox="0 0 18 18" fill="none" xmlns="http://www.w3.org/2000/svg">
<path fill-rule="evenodd" clip-rule="evenodd" d="M12.1843 13.0827C10.8949 14.169 9.22974 14.8235 7.41176 14.8235C3.31836 14.8235 0 11.5052 0 7.41176C0 3.31836 3.31836 0 7.41176 0C11.5052 0 14.8235 3.31836 14.8235 7.41176C14.8235 9.22974 14.169 10.8949 13.0827 12.1843L17.3904 16.4919L16.4919 17.3904L12.1843 13.0827ZM13.5529 7.41176C13.5529 10.8035 10.8035 13.5529 7.41176 13.5529C4.02009 13.5529 1.27059 10.8035 1.27059 7.41176C1.27059 4.02009 4.02009 1.27059 7.41176 1.27059C10.8035 1.27059 13.5529 4.02009 13.5529 7.41176Z" fill="#646371"/>
</svg>
