<svg width="21" height="20" viewBox="0 0 21 20" fill="none" xmlns="http://www.w3.org/2000/svg">
<path d="M17.3864 14.1876C16.6584 14.1876 15.9746 14.4674 15.4599 14.9749C15.3224 15.1104 15.2025 15.2573 15.0991 15.4127L6.01764 10.9366C6.12609 10.6431 6.1842 10.331 6.1842 10.0088C6.1842 9.68677 6.12745 9.37453 6.01764 9.081L15.0991 4.60493C15.2025 4.76158 15.3224 4.90842 15.4599 5.04276C15.9747 5.55023 16.6585 5.83006 17.3864 5.83006C18.1144 5.83006 18.7983 5.55023 19.3129 5.04276C19.8277 4.53529 20.1116 3.86121 20.1116 3.14369C20.1116 2.42603 19.8277 1.75195 19.3129 1.24462C18.7981 0.737012 18.1143 0.457184 17.3864 0.457184C16.6584 0.457184 15.9746 0.737008 15.4599 1.24448C14.9451 1.75195 14.6612 2.42603 14.6612 3.14355C14.6612 3.46439 14.718 3.77784 14.8278 4.07137L5.74528 8.54744C5.64188 8.39079 5.52198 8.24395 5.38448 8.10961C4.86968 7.60214 4.18586 7.32231 3.45798 7.32231C2.72995 7.32231 2.04614 7.60214 1.53148 8.10961C1.01654 8.61708 0.732666 9.29116 0.732666 10.0088C0.732666 10.7265 1.01653 11.4006 1.53134 11.9079C2.04614 12.4154 2.72995 12.6952 3.45784 12.6952C4.18586 12.6952 4.86968 12.4154 5.38434 11.9079C5.52184 11.7723 5.64174 11.6255 5.74514 11.4701L14.8266 15.9461C14.7182 16.2397 14.66 16.5518 14.66 16.8739C14.66 17.5916 14.9439 18.2657 15.4587 18.773C15.9735 19.2805 16.6573 19.5603 17.3852 19.5603C18.1132 19.5603 18.7971 19.2805 19.3117 18.773C19.8265 18.2655 20.1104 17.5915 20.1104 16.8739C20.1104 16.1563 19.8265 15.4822 19.3117 14.9749C18.7983 14.4675 18.1145 14.1877 17.3866 14.1877L17.3864 14.1876Z" fill="white"/>
</svg>
