<svg width="25" height="25" viewBox="0 0 25 25" fill="none" xmlns="http://www.w3.org/2000/svg">
<path d="M21.3057 17.8111C20.3952 17.8111 19.5399 18.1611 18.8962 18.7958C18.7242 18.9653 18.5742 19.149 18.4449 19.3434L7.08642 13.745C7.22206 13.3779 7.29474 12.9875 7.29474 12.5846C7.29474 12.1818 7.22377 11.7912 7.08642 11.4241L18.4449 5.82573C18.5742 6.02166 18.7242 6.20532 18.8962 6.37334C19.5401 7.00805 20.3953 7.35804 21.3057 7.35804C22.2163 7.35804 23.0716 7.00806 23.7153 6.37334C24.3592 5.73863 24.7142 4.89554 24.7142 3.99811C24.7142 3.10051 24.3592 2.25741 23.7153 1.62287C23.0714 0.987991 22.2161 0.638 21.3057 0.638C20.3952 0.638 19.5399 0.987987 18.8962 1.6227C18.2523 2.25741 17.8973 3.10051 17.8973 3.99794C17.8973 4.39922 17.9682 4.79126 18.1056 5.15839L6.74577 10.7568C6.61645 10.5608 6.46648 10.3772 6.29451 10.2092C5.65063 9.57445 4.79535 9.22446 3.88496 9.22446C2.97439 9.22446 2.11912 9.57445 1.47542 10.2092C0.831364 10.8439 0.476318 11.687 0.476318 12.5846C0.476318 13.4822 0.83136 14.3253 1.47524 14.9598C2.11912 15.5945 2.97439 15.9445 3.88479 15.9445C4.79535 15.9445 5.65063 15.5945 6.29433 14.9598C6.46631 14.7903 6.61627 14.6066 6.7456 14.4122L18.1041 20.0106C17.9685 20.3777 17.8958 20.7681 17.8958 21.171C17.8958 22.0686 18.2508 22.9117 18.8947 23.5463C19.5386 24.181 20.3939 24.531 21.3043 24.531C22.2148 24.531 23.0701 24.181 23.7138 23.5463C24.3577 22.9116 24.7127 22.0685 24.7127 21.171C24.7127 20.2734 24.3577 19.4303 23.7138 18.7958C23.0716 18.1613 22.2163 17.8113 21.306 17.8113L21.3057 17.8111Z" fill="#E3DBF1"/>
</svg>
