<svg width="40" height="36" viewBox="0 0 40 36" fill="none" xmlns="http://www.w3.org/2000/svg">
<path d="M2.97185 16.5256C2.94219 16.9009 2.92767 17.2684 2.92767 17.6436C2.92767 26.9104 10.4928 34.449 19.7844 34.449C24.6112 34.449 29.1645 32.3898 32.3386 28.8448C31.8886 28.6315 31.4678 28.352 31.1061 28.0063C28.2205 31.1466 24.1242 32.978 19.7847 32.978C16.5003 32.978 13.4524 31.9484 10.9582 30.1905C10.9582 30.1905 10.9508 30.1905 10.9434 30.1831C10.4785 29.8596 10.0282 29.5066 9.60739 29.124C6.41902 26.322 4.40407 22.2107 4.40407 17.6438C4.40407 17.3717 4.41149 17.107 4.43373 16.8349C3.91664 16.813 3.42953 16.7028 2.97207 16.5261L2.97185 16.5256Z" fill="white"/>
<path d="M16.7367 2.61823C17.7258 2.41969 18.7442 2.31658 19.7849 2.31658C20.154 2.31658 20.5154 2.33135 20.8771 2.36059H20.8845C28.8554 2.91988 35.1657 9.56083 35.1657 17.6436C35.1657 18.2026 35.136 18.7689 35.0696 19.3279C35.579 19.3719 36.0662 19.5043 36.5162 19.7031C36.5974 19.0192 36.6416 18.3279 36.6416 17.6439C36.6416 8.38426 29.0839 0.846375 19.7848 0.846375C14.5815 0.846375 9.79905 3.17031 6.6178 7.16382C7.0901 7.34758 7.51824 7.59783 7.90928 7.92134C10.1605 5.16307 13.2677 3.3098 16.7366 2.61842L16.7367 2.61823Z" fill="white"/>
<path d="M9.77636 12.2965C9.34083 13.098 9.00877 13.9513 8.77984 14.8485C8.54354 15.7458 8.42554 16.6871 8.42554 17.6431C8.42554 19.3493 8.80208 20.9967 9.52518 22.4973C9.85723 22.1076 10.2486 21.7693 10.6912 21.5043C10.1674 20.2979 9.9014 18.9963 9.9014 17.6431C9.9014 14.1939 11.7096 11.0536 14.5731 9.27392C14.3442 8.82545 14.1894 8.34709 14.1156 7.83246C12.2635 8.899 10.7651 10.458 9.77628 12.2969L9.77636 12.2965Z" fill="white"/>
<path d="M19.7922 27.4983C19.2312 27.4983 18.6702 27.4543 18.1316 27.3586C17.9691 27.8514 17.7331 28.3073 17.423 28.7191C18.198 28.8884 18.9875 28.9691 19.7922 28.9691C23.9103 28.9691 27.5859 26.7187 29.5787 23.3648C29.9772 22.6883 30.3092 21.9674 30.5678 21.2173C30.8483 20.3788 31.0327 19.5037 31.1065 18.5917C31.2245 17.2973 31.0991 16.0175 30.7154 14.5468C29.7486 11.171 27.313 8.48669 24.132 7.18494C24.1246 7.70698 24.0285 8.20719 23.8664 8.67778C26.4642 9.86189 28.5013 12.1637 29.2912 14.9364C29.6232 16.2234 29.7341 17.3414 29.638 18.4667C29.217 23.5344 24.8919 27.4986 19.7922 27.4986L19.7922 27.4983Z" fill="white"/>
<path d="M25.1497 17.6438C25.1497 20.597 22.7474 22.9907 19.7841 22.9907C16.8209 22.9907 14.4186 20.5969 14.4186 17.6438C14.4186 14.691 16.8209 12.2972 19.7841 12.2972C22.7474 12.2972 25.1497 14.691 25.1497 17.6438Z" fill="white"/>
<path d="M4.75816 15.3854C6.7289 15.3854 8.33021 13.7895 8.33021 11.8334C8.33021 9.86954 6.72859 8.27386 4.75816 8.27386C2.79516 8.27356 1.19354 9.86954 1.19354 11.833C1.19354 13.7895 2.79516 15.3854 4.75816 15.3854Z" fill="white"/>
<path d="M30.9586 24.3212C30.9586 26.285 32.5602 27.8807 34.5232 27.8807C36.494 27.8807 38.0953 26.2847 38.0953 24.3212C38.0953 22.3574 36.4937 20.7617 34.5232 20.7617C32.5602 20.7617 30.9586 22.3577 30.9586 24.3212Z" fill="white"/>
<path d="M19.0979 10.6126C21.0612 10.6126 22.6625 9.01658 22.6625 7.06048C22.6625 5.09665 21.0609 3.50098 19.0979 3.50098C17.1272 3.50098 15.5259 5.09697 15.5259 7.06048C15.5259 9.01658 17.1272 10.6126 19.0979 10.6126Z" fill="white"/>
<path d="M13.349 22.2109C11.3783 22.2109 9.77698 23.8069 9.77698 25.7704C9.77698 27.7268 11.3786 29.3225 13.349 29.3225C15.3198 29.3225 16.9211 27.7265 16.9211 25.7704C16.9211 23.8069 15.3198 22.2109 13.349 22.2109Z" fill="white"/>
</svg>
