<svg width="19" height="19" viewBox="0 0 19 19" fill="none" xmlns="http://www.w3.org/2000/svg">
<path fill-rule="evenodd" clip-rule="evenodd" d="M12.6483 4.70584C12.6483 6.52511 11.1483 7.99992 9.29789 7.99992C7.44751 7.99992 5.94748 6.52511 5.94748 4.70584C5.94748 2.88658 7.44751 1.41176 9.29789 1.41176C11.1483 1.41176 12.6483 2.88658 12.6483 4.70584ZM14.0843 4.70584C14.0843 7.3048 11.9413 9.41168 9.29789 9.41168C6.65448 9.41168 4.51157 7.3048 4.51157 4.70584C4.51157 2.10687 6.65448 0 9.29789 0C11.9413 0 14.0843 2.10687 14.0843 4.70584ZM8.37607 10.5884C3.7501 10.5884 0 14.2754 0 18.8235H1.43591C1.43591 15.0551 4.54313 12.0001 8.37607 12.0001H10.2906C14.1236 12.0001 17.2308 15.0551 17.2308 18.8235H18.6667C18.6667 14.2754 14.9166 10.5884 10.2906 10.5884H8.37607Z" fill="white"/>
</svg>
