<svg width="76" height="61" viewBox="0 0 76 61" fill="none" xmlns="http://www.w3.org/2000/svg">
<path d="M0.390625 0.205475V44.0849H75.5498V0.205475H0.390625ZM30.0587 10.1781L49.8374 22.145L30.0587 34.112V10.1781ZM13.247 50.0685C11.2237 50.0685 9.50049 51.3053 8.73477 53.0604H4.34602C3.25333 53.0604 2.36832 53.9536 2.36832 55.0548C2.36832 56.1567 3.25406 57.0491 4.34602 57.0491H8.73477C9.50047 58.8035 11.2237 60.0411 13.247 60.0411C15.2702 60.0411 16.9935 58.8043 17.7592 57.0491H71.5944C72.6871 57.0491 73.5721 56.1559 73.5721 55.0548C73.5721 53.9529 72.6863 53.0604 71.5944 53.0604H17.7592C16.9935 51.3061 15.2702 50.0685 13.247 50.0685Z" fill="#E7AEC6"/>
</svg>
