<svg width="179" height="31" viewBox="0 0 179 31" fill="none" xmlns="http://www.w3.org/2000/svg">
<circle cx="15.5" cy="15.5" r="15.5" fill="#D96DD4"/>
<path d="M13.35 7.5H21C22.8667 7.5 24.525 7.86667 25.975 8.6C27.425 9.31667 28.55 10.3417 29.35 11.675C30.15 12.9917 30.55 14.5167 30.55 16.25C30.55 17.9833 30.15 19.5167 29.35 20.85C28.55 22.1667 27.425 23.1917 25.975 23.925C24.525 24.6417 22.8667 25 21 25H13.35V7.5ZM20.85 22.25C22.1333 22.25 23.2583 22.0083 24.225 21.525C25.2083 21.025 25.9583 20.325 26.475 19.425C27.0083 18.5083 27.275 17.45 27.275 16.25C27.275 15.05 27.0083 14 26.475 13.1C25.9583 12.1833 25.2083 11.4833 24.225 11C23.2583 10.5 22.1333 10.25 20.85 10.25H16.6V22.25H20.85ZM45.1102 20.95H36.3602L34.6352 25H31.2852L39.1602 7.5H42.3602L50.2602 25H46.8602L45.1102 20.95ZM44.0352 18.4L40.7352 10.75L37.4602 18.4H44.0352ZM55.1568 10.25H49.3568V7.5H64.2068V10.25H58.4068V25H55.1568V10.25ZM77.117 20.95H68.367L66.642 25H63.292L71.167 7.5H74.367L82.267 25H78.867L77.117 20.95ZM76.042 18.4L72.742 10.75L69.467 18.4H76.042ZM96.8268 25.25C95.4768 25.25 94.1684 25.0583 92.9018 24.675C91.6518 24.2917 90.6601 23.7833 89.9268 23.15L91.0518 20.625C91.7684 21.1917 92.6434 21.6583 93.6768 22.025C94.7268 22.375 95.7768 22.55 96.8268 22.55C98.1268 22.55 99.0934 22.3417 99.7268 21.925C100.377 21.5083 100.702 20.9583 100.702 20.275C100.702 19.775 100.518 19.3667 100.152 19.05C99.8018 18.7167 99.3518 18.4583 98.8018 18.275C98.2518 18.0917 97.5018 17.8833 96.5518 17.65C95.2184 17.3333 94.1351 17.0167 93.3018 16.7C92.4851 16.3833 91.7768 15.8917 91.1768 15.225C90.5934 14.5417 90.3018 13.625 90.3018 12.475C90.3018 11.5083 90.5601 10.6333 91.0768 9.85C91.6101 9.05 92.4018 8.41667 93.4518 7.95C94.5184 7.48333 95.8184 7.25 97.3518 7.25C98.4184 7.25 99.4684 7.38333 100.502 7.65C101.535 7.91667 102.427 8.3 103.177 8.8L102.152 11.325C101.385 10.875 100.585 10.5333 99.7518 10.3C98.9184 10.0667 98.1101 9.95 97.3268 9.95C96.0434 9.95 95.0851 10.1667 94.4518 10.6C93.8351 11.0333 93.5268 11.6083 93.5268 12.325C93.5268 12.825 93.7018 13.2333 94.0518 13.55C94.4184 13.8667 94.8768 14.1167 95.4268 14.3C95.9768 14.4833 96.7268 14.6917 97.6768 14.925C98.9768 15.225 100.043 15.5417 100.877 15.875C101.71 16.1917 102.418 16.6833 103.002 17.35C103.602 18.0167 103.902 18.9167 103.902 20.05C103.902 21.0167 103.635 21.8917 103.102 22.675C102.585 23.4583 101.793 24.0833 100.727 24.55C99.6601 25.0167 98.3601 25.25 96.8268 25.25ZM114.324 7.5C115.841 7.5 117.158 7.75 118.274 8.25C119.408 8.75 120.274 9.46667 120.874 10.4C121.474 11.3333 121.774 12.4417 121.774 13.725C121.774 14.9917 121.474 16.1 120.874 17.05C120.274 17.9833 119.408 18.7 118.274 19.2C117.158 19.7 115.841 19.95 114.324 19.95H110.374V25H107.124V7.5H114.324ZM114.174 17.2C115.591 17.2 116.666 16.9 117.399 16.3C118.133 15.7 118.499 14.8417 118.499 13.725C118.499 12.6083 118.133 11.75 117.399 11.15C116.666 10.55 115.591 10.25 114.174 10.25H110.374V17.2H114.174ZM135.491 20.95H126.741L125.016 25H121.666L129.541 7.5H132.741L140.641 25H137.241L135.491 20.95ZM134.416 18.4L131.116 10.75L127.841 18.4H134.416ZM150.722 25.25C148.956 25.25 147.356 24.8667 145.922 24.1C144.506 23.3167 143.389 22.2417 142.572 20.875C141.772 19.5083 141.372 17.9667 141.372 16.25C141.372 14.5333 141.781 12.9917 142.597 11.625C143.414 10.2583 144.531 9.19167 145.947 8.425C147.381 7.64167 148.981 7.25 150.747 7.25C152.181 7.25 153.489 7.5 154.672 8C155.856 8.5 156.856 9.225 157.672 10.175L155.572 12.15C154.306 10.7833 152.747 10.1 150.897 10.1C149.697 10.1 148.622 10.3667 147.672 10.9C146.722 11.4167 145.981 12.1417 145.447 13.075C144.914 14.0083 144.647 15.0667 144.647 16.25C144.647 17.4333 144.914 18.4917 145.447 19.425C145.981 20.3583 146.722 21.0917 147.672 21.625C148.622 22.1417 149.697 22.4 150.897 22.4C152.747 22.4 154.306 21.7083 155.572 20.325L157.672 22.325C156.856 23.275 155.847 24 154.647 24.5C153.464 25 152.156 25.25 150.722 25.25ZM173.912 22.275V25H160.787V7.5H173.562V10.225H164.037V14.775H172.487V17.45H164.037V22.275H173.912Z" fill="#F4F8FD"/>
</svg>
