<svg width="100" height="16" viewBox="0 0 100 16" fill="none" xmlns="http://www.w3.org/2000/svg">
<g clip-path="url(#clip0_41_3)">
<path d="M99.9 0.4H97.2C97.1 0.4 97 0.5 97 0.6V9.2C96.4 9.4 95.8 9.4 95.2 9.4C93.4 9.4 93 8.9 93 6.5V0.6C93 0.5 92.9 0.4 92.8 0.4H90.1C90 0.4 89.9 0.5 89.9 0.6V6.8C89.9 10.6 91.2 12.2 94.5 12.2C96.3 12.2 98.5 11.7 99.7 11.2C99.8 11.2 99.8 11.1 99.8 11V0.6C100 0.5 100 0.4 99.9 0.4ZM34.3 15.7C34.2 15.8 34.3 15.8 34.3 15.9C34.4 16 34.4 16 34.5 16H37.4C37.5 16 37.5 15.9 37.6 15.9C38.1 14.9 38.8 13.6 39.3 12.2C41 8.1 42.5 4.2 43.5 0.7C43.5 0.6 43.5 0.6 43.4 0.5H40.6C40.5 0.5 40.4 0.6 40.4 0.6C40 2.3 39.1 5.2 37.9 8.1L35.2 0.4C35.2 0.3 35.1 0.3 35 0.3H32.3C32.2 0.3 32.2 0.4 32.1 0.4C32 0.5 32 0.5 32.1 0.6L36.3 11.9C35.9 12.8 35.5 13.5 35.1 14.2C34.8 14.7 34.6 15.2 34.3 15.7ZM69.4 15.8C69.3 15.9 69.4 15.9 69.4 16C69.5 16.1 69.5 16.1 69.6 16.1H72.5C72.6 16.1 72.6 16 72.7 16C73.2 15 73.9 13.7 74.4 12.3C76.1 8.2 77.6 4.3 78.6 0.8C78.6 0.6 78.6 0.5 78.5 0.5H75.8C75.7 0.5 75.6 0.6 75.6 0.6C75.2 2.3 74.3 5.2 73.1 8.1L70.4 0.5C70.4 0.4 70.3 0.4 70.2 0.4H67.5C67.4 0.4 67.4 0.5 67.3 0.5C67.2 0.6 67.2 0.6 67.3 0.7L71.4 12C71 12.9 70.6 13.5 70.2 14.3C69.9 14.8 69.7 15.3 69.4 15.8ZM83.3 11.9C83.4 11.9 83.5 11.8 83.5 11.7V3.1H87.7C87.8 3.1 87.9 3 87.9 3C88.2 2.3 88.5 1.5 88.8 0.7V0.5C88.5 0.5 88.5 0.4 88.5 0.4H80.6C80.5 0.4 80.4 0.5 80.4 0.6V11.7C80.4 11.8 80.5 11.9 80.6 11.9H83.3ZM50 2.7C50.7 2.7 51.4 2.8 52.2 3.1C52.3 3.1 52.4 3.1 52.4 3C52.7 2.4 53.1 1.7 53.5 0.8V0.6C53.5 0.5 53.4 0.5 53.4 0.5C52.2 0.2 50.9 0 49.8 0C46 0 44.2 1.8 44.2 6C44.2 10.3 45.9 12.1 49.8 12.1C50.7 12.1 52.7 11.9 53.6 11.5C53.7 11.4 53.7 11.4 53.7 11.3C53.8 11.3 53 9.1 53 9.1C53 9.1 53 9 52.9 9H52.7C52.1 9.2 50.9 9.5 50 9.5C48.2 9.5 47.3 9 47.3 6.1C47.3 3.8 47.6 2.7 50 2.7ZM62.8 11.8H65.5C65.6 11.8 65.7 11.7 65.7 11.6V0.6C65.5 0.5 65.4 0.4 65.3 0.4H57.1C57 0.4 57 0.5 57 0.6C56.8 4.3 56.1 8.4 55.1 11.6V11.7C55.2 11.8 55.2 11.8 55.3 11.8H58.1C58.2 11.8 58.3 11.7 58.3 11.7C59 9.1 59.7 5.8 59.9 3H62.6V11.6C62.6 11.7 62.7 11.8 62.8 11.8Z" fill="#EE3F58"/>
<path d="M8.3 0.6L8.1 0.4H0.2C0.1 0.4 0 0.5 0 0.6V11.7C0 11.8 0.1 11.9 0.2 11.9H2.9C3 11.9 3.1 11.8 3.1 11.7V3.1H7.3C7.2 3.1 7.3 3 7.3 3C7.6 2.2 8 1.4 8.3 0.6ZM30.2 9H30C29.4 9.2 28.2 9.5 27.3 9.5C25.5 9.5 24.6 9 24.6 6.1C24.6 3.8 24.9 2.7 27.3 2.7C28 2.7 28.7 2.8 29.5 3.1C29.6 3.1 29.7 3.1 29.7 3C30 2.4 30.4 1.7 30.8 0.8V0.6C30.8 0.5 30.7 0.5 30.7 0.5C29.6 0.2 28.3 0 27.2 0C23.3 0 21.6 1.8 21.6 6C21.6 10.3 23.3 12.1 27.2 12.1C28.1 12.1 30.1 11.9 31 11.5C31.1 11.4 31.1 11.4 31.1 11.3C31.1 11.4 30.3 9.1 30.2 9C30.2 9 30.3 9 30.2 9ZM19.6 6.1C19.6 1.8 18.1 0.1 14.2 0.1C10.4 0.1 8.8 1.7 8.8 6.1C8.8 10.5 10.3 12.2 14.2 12.2C18.1 12.2 19.6 10.5 19.6 6.1ZM11.9 6.1C11.9 2.9 12.5 2.6 14.2 2.6C15.9 2.6 16.6 2.9 16.6 6.1C16.6 9.1 16 9.6 14.2 9.6C12.4 9.6 11.9 9.1 11.9 6.1Z" fill="#0065B1"/>
</g>
<defs>
<clipPath id="clip0_41_3">
<rect width="100" height="16" fill="white"/>
</clipPath>
</defs>
</svg>
