<svg width="134" height="35" viewBox="0 0 134 35" fill="none" xmlns="http://www.w3.org/2000/svg">
<g clip-path="url(#clip0_27_69)">
<path fill-rule="evenodd" clip-rule="evenodd" d="M15.248 34.8347C9.51349 29.2875 6.64616 26.5139 6.64604 26.514L1.03754 32.0611C0.4606 32.822 0.609673 33.9065 1.37051 34.4834C1.67107 34.7113 2.03794 34.8347 2.41515 34.8347C2.42456 34.8347 2.43398 34.8347 2.44339 34.8347C6.7116 34.8347 10.9798 34.8347 15.248 34.8347Z" fill="#FF4F12"/>
<path fill-rule="evenodd" clip-rule="evenodd" d="M20.8016 12.6463L8.32063 0.165344L1.3523 7.42402C0.484563 8.32792 0 9.53237 0 10.7854L0 32.0611C0 33.5929 1.24176 34.8347 2.77354 34.8347C1.82455 34.8347 1.05525 34.0653 1.05525 33.1164C1.05525 32.6595 1.23718 32.2215 1.56084 31.899" fill="#7800FF"/>
<path fill-rule="evenodd" clip-rule="evenodd" d="M109.722 21.7809H106.721L103.135 25.4066V21.7809H100.597V31.7716H103.135V27.6425L106.781 31.7716H109.843L105.13 26.4137L109.722 21.7809Z" fill="#E3DBF1"/>
<path fill-rule="evenodd" clip-rule="evenodd" d="M29.1954 24.3746H25.5294V19.9433H29.1954C31.0484 19.9433 31.8945 20.8295 31.8945 22.1589C31.8945 23.4883 31.0484 24.3746 29.1954 24.3746ZM29.2759 17.5664H22.8707V31.6661H25.5294V26.7513H29.2759C32.4585 26.7513 34.5533 25.1199 34.5533 22.1589C34.5533 19.1979 32.4585 17.5664 29.2759 17.5664Z" fill="#E3DBF1"/>
<path fill-rule="evenodd" clip-rule="evenodd" d="M40.5486 29.6767C39.0582 29.6767 37.6683 28.6091 37.6683 26.7761C37.6683 24.9432 39.0582 23.8757 40.5486 23.8757C42.0392 23.8757 43.429 24.9432 43.429 26.7761C43.429 28.6091 42.0392 29.6767 40.5486 29.6767ZM40.5486 21.4988C37.8093 21.4988 35.09 23.2715 35.09 26.7761C35.09 30.2811 37.8093 32.0534 40.5486 32.0534C43.2881 32.0534 46.0073 30.2811 46.0073 26.7761C46.0073 23.2715 43.2881 21.4988 40.5486 21.4988Z" fill="#E3DBF1"/>
<path fill-rule="evenodd" clip-rule="evenodd" d="M52.4815 29.6767C50.9507 29.6767 49.8227 28.5688 49.8227 26.7761C49.8227 25.0036 50.9909 23.8757 52.4815 23.8757C53.388 23.8757 54.1735 24.2987 54.7979 25.2454L56.9732 23.9965C56.2482 22.4454 54.677 21.4988 52.5016 21.4988C49.6615 21.4988 47.2444 23.5937 47.2444 26.7761C47.2444 29.9586 49.5408 32.0534 52.5016 32.0534C54.6367 32.0534 56.0667 31.0868 57.074 29.3747L54.9792 28.2266C54.3749 29.0725 53.7303 29.6767 52.4815 29.6767Z" fill="#E3DBF1"/>
<path fill-rule="evenodd" clip-rule="evenodd" d="M79.51 27.4412C79.3892 28.9718 79.0867 29.3144 78.5629 29.3144C78.2051 29.3144 78.0369 29.2747 77.792 29.2105L77.8047 31.7961C77.8047 31.7961 78.1202 31.8924 78.7043 31.8924C80.8595 31.8924 81.6652 30.5026 81.8667 27.5418L82.1084 24.0572H84.9685V31.7515H87.5065V21.7811H79.9329L79.51 27.4412Z" fill="#E3DBF1"/>
<path fill-rule="evenodd" clip-rule="evenodd" d="M69.5526 25.4469C69.9152 24.3189 70.9223 23.4326 72.2517 23.4326C73.6617 23.4326 74.6085 24.198 74.8501 25.4469H69.5526ZM72.3323 21.499C69.4319 21.499 67.0751 23.6139 67.0751 26.7762C67.0751 29.9386 69.4319 32.0536 72.2114 32.0536C74.407 32.0536 75.7968 31.2278 76.8039 29.5157L74.7896 28.5086C74.1652 29.2941 73.6012 29.8781 72.2517 29.8781C70.7613 29.8781 69.6735 28.9114 69.5123 27.3806H77.2067V26.4943C77.2067 23.5737 75.1926 21.499 72.3323 21.499Z" fill="#E3DBF1"/>
<path fill-rule="evenodd" clip-rule="evenodd" d="M91.4105 25.4469C91.7731 24.3189 92.7802 23.4326 94.1096 23.4326C95.5195 23.4326 96.4662 24.198 96.708 25.4469H91.4105ZM94.1902 21.499C91.2896 21.499 88.933 23.6139 88.933 26.7762C88.933 29.9386 91.2896 32.0536 94.0693 32.0536C96.2648 32.0536 97.6546 31.2278 98.6618 29.5157L96.6477 28.5086C96.0231 29.2941 95.4591 29.8781 94.1096 29.8781C92.619 29.8781 91.5313 28.9114 91.3703 27.3806H99.0646V26.4943C99.0646 23.5737 97.0503 21.499 94.1902 21.499Z" fill="#E3DBF1"/>
<path fill-rule="evenodd" clip-rule="evenodd" d="M57.8628 23.9966H60.8439V31.7717H63.3817V23.9966H66.363V21.7811H57.8628V23.9966Z" fill="#E3DBF1"/>
<path fill-rule="evenodd" clip-rule="evenodd" d="M114.878 29.6768C113.387 29.6768 111.997 28.6092 111.997 26.7762C111.997 24.9433 113.387 23.8759 114.878 23.8759C116.368 23.8759 117.758 24.9433 117.758 26.7762C117.758 28.6092 116.368 29.6768 114.878 29.6768ZM114.878 21.499C112.138 21.499 109.419 23.2715 109.419 26.7762C109.419 30.2811 112.138 32.0536 114.878 32.0536C117.617 32.0536 120.336 30.2811 120.336 26.7762C120.336 23.2715 117.617 21.499 114.878 21.499Z" fill="#E3DBF1"/>
<path fill-rule="evenodd" clip-rule="evenodd" d="M130.463 21.7792L127.709 28.7761L124.954 21.7792H121.637V31.7517H124.049V25.4384L126.724 31.7517H128.694L131.368 25.4384V31.7517H133.781V21.7792H130.463Z" fill="#E3DBF1"/>
</g>
<defs>
<clipPath id="clip0_27_69">
<rect width="133.824" height="35" fill="white"/>
</clipPath>
</defs>
</svg>
